{"glyphs":{"32":{"x_min":0,"x_max":0,"ha":200,"o":""},"33":{"x_min":30,"x_max":184,"ha":215,"o":"m 105 200 l 105 200 l 64 205 q 64 300 56 412 q 47 524 38 588 l 38 588 l 30 653 q 39 662 90 665 l 90 665 l 106 666 q 160 666 181 652 l 181 652 q 184 650 184 649 q 184 647 182 636 q 179 624 176 609 q 173 593 170 575 l 170 575 q 163 533 163 515 q 163 497 160 431 l 160 431 q 149 242 146 207 l 146 207 q 126 200 105 200 m 155 111 q 174 91 174 63 q 174 35 155 16 q 135 -4 107 -4 q 79 -4 60 16 q 40 35 40 63 q 40 91 60 111 q 79 130 107 130 q 135 130 155 111"},"34":{"x_min":30,"x_max":306,"ha":336,"o":"m 281 498 l 281 498 q 267 491 251 491 q 234 491 220 498 l 220 498 q 220 538 202 631 l 202 631 l 196 662 q 214 675 251 675 q 288 675 306 664 l 306 664 q 281 540 281 498 m 115 498 l 115 498 q 101 491 85 491 q 68 491 54 498 l 54 498 q 54 538 36 631 l 36 631 l 30 662 q 48 675 85 675 q 122 675 140 664 l 140 664 q 115 540 115 498"},"35":{"x_min":30,"x_max":510,"ha":540,"o":"m 322 380 l 219 380 l 219 277 l 322 277 l 322 380 m 399 200 l 399 98 q 388 89 360 89 q 332 89 322 100 l 322 100 l 322 200 l 219 200 l 219 98 q 208 89 180 89 q 152 89 142 100 l 142 100 l 142 200 l 39 200 q 30 211 30 239 q 30 266 41 277 l 41 277 l 142 277 l 142 380 l 39 380 q 30 391 30 419 q 30 446 41 457 l 41 457 l 142 457 l 142 561 q 153 569 181 569 q 208 569 219 559 l 219 559 l 219 457 l 322 457 l 322 561 q 333 569 361 569 q 388 569 399 559 l 399 559 l 399 457 l 502 457 q 510 446 510 419 q 510 392 501 380 l 501 380 l 399 380 l 399 277 l 502 277 q 510 266 510 239 q 510 212 501 200 l 501 200 l 399 200"},"36":{"x_min":30,"x_max":496,"ha":526,"o":"m 412 565 l 412 565 l 384 566 q 342 566 306 561 l 306 561 l 305 395 q 381 368 432 334 l 432 334 q 496 290 496 217 q 496 143 445 87 q 393 30 305 2 l 305 2 l 305 -58 q 284 -79 248 -79 l 248 -79 l 242 -79 l 242 -13 q 195 -20 156 -20 l 156 -20 q 79 -20 43 -12 l 43 -12 q 30 0 30 134 l 30 134 q 30 188 33 198 q 36 207 66 220 q 96 232 127 232 l 127 232 q 130 119 155 95 l 155 95 q 165 87 193 86 q 221 85 242 88 l 242 88 l 242 306 q 117 354 86 386 l 86 386 q 44 427 44 479 q 44 530 94 579 q 144 628 242 650 l 242 650 l 242 694 q 265 716 300 716 l 300 716 l 306 716 l 306 660 q 348 665 388 665 q 427 665 430 662 q 433 659 433 649 l 433 649 q 433 585 412 565 m 376 207 l 376 207 q 376 249 305 281 l 305 281 l 305 105 q 376 139 376 207 m 180 480 l 180 480 q 180 447 242 420 l 242 420 l 242 546 q 180 525 180 480"},"37":{"x_min":30,"x_max":589,"ha":619,"o":"m 461 300 q 521 300 555 250 q 589 200 589 131 q 589 61 551 27 q 512 -7 460 -7 l 460 -7 q 332 -7 332 139 l 332 139 q 332 200 366 250 q 400 300 461 300 m 158 667 q 218 667 252 617 q 286 567 286 498 q 286 429 248 395 q 209 360 158 360 l 158 360 q 30 360 30 506 l 30 506 q 30 568 64 618 q 97 667 158 667 m 59 1 l 59 1 l 482 666 q 492 668 502 668 l 502 668 q 522 668 556 649 l 556 649 l 133 -16 q 123 -18 114 -18 q 105 -18 90 -13 q 75 -9 59 1 m 460 51 l 460 51 q 489 51 505 73 q 521 95 521 139 q 521 183 504 212 q 486 240 461 240 q 435 240 418 212 q 400 183 400 137 l 400 137 q 400 51 460 51 m 98 504 q 98 418 158 418 q 218 418 218 504 l 218 504 q 218 550 201 579 q 183 607 158 607 q 133 607 116 579 q 98 550 98 504 l 98 504"},"38":{"x_min":40,"x_max":594,"ha":619,"o":"m 486 325 l 486 325 l 485 339 q 513 339 540 330 q 567 320 580 311 l 580 311 l 594 302 q 594 166 508 77 l 508 77 q 536 38 571 10 l 571 10 q 572 9 572 8 l 572 8 q 572 -2 533 -24 q 493 -47 464 -47 l 464 -47 q 430 -7 416 12 l 416 12 q 352 -25 274 -25 l 274 -25 q 170 -25 105 28 q 40 80 40 182 l 40 182 q 40 335 188 409 l 188 409 q 161 480 161 526 l 161 526 q 161 598 220 636 q 279 673 356 673 l 356 673 q 407 670 411 666 l 411 666 q 426 637 426 588 l 426 588 q 426 579 425 575 l 425 575 q 397 579 369 579 q 341 579 313 564 q 285 549 285 507 q 285 465 338 353 q 391 241 444 165 l 444 165 q 465 192 476 240 q 486 287 486 325 m 157 192 q 157 143 187 110 q 216 76 272 76 q 328 76 358 95 l 358 95 q 285 205 236 311 l 236 311 q 208 302 184 274 l 184 274 q 157 241 157 192"},"39":{"x_min":30,"x_max":140,"ha":170,"o":"m 115 498 l 115 498 q 101 491 85 491 q 68 491 54 498 l 54 498 q 54 538 36 631 l 36 631 l 30 662 q 48 675 85 675 q 122 675 140 664 l 140 664 q 115 540 115 498"},"40":{"x_min":30,"x_max":280,"ha":290,"o":"m 154 490 q 135 411 135 324 q 135 237 154 159 q 172 80 200 28 l 200 28 q 250 -62 279 -91 l 279 -91 q 281 -94 276 -96 l 276 -96 q 264 -98 230 -98 q 196 -98 189 -95 q 182 -93 167 -76 q 151 -60 128 -23 q 104 13 83 60 q 61 106 46 177 q 30 248 30 325 q 30 401 46 472 q 61 542 83 589 q 104 636 128 673 q 151 709 167 726 q 182 742 189 745 q 196 747 230 747 q 264 747 276 745 l 276 745 q 281 743 279 740 l 279 740 q 245 704 209 636 q 172 568 154 490"},"41":{"x_min":10,"x_max":260,"ha":290,"o":"m 137 159 q 155 237 155 324 q 155 411 137 489 q 118 567 90 620 l 90 620 q 42 708 12 740 l 12 740 q 9 743 14 745 l 14 745 q 26 747 61 747 q 95 747 102 744 q 109 741 124 725 q 139 709 163 673 q 186 636 208 589 q 229 542 245 472 q 260 401 260 325 q 260 248 245 177 q 229 106 208 60 q 186 13 163 -23 q 139 -60 124 -76 q 109 -92 102 -95 q 95 -98 61 -98 q 26 -98 14 -96 l 14 -96 q 7 -96 12 -91 l 12 -91 q 47 -52 83 15 q 118 81 137 159"},"42":{"x_min":20,"x_max":229,"ha":249,"o":"m 206 508 l 144 547 l 147 477 q 141 471 125 471 l 125 471 l 101 474 l 106 547 l 45 509 q 38 510 29 526 l 29 526 l 20 548 l 86 581 l 22 614 q 22 626 28 636 l 28 636 l 43 655 l 106 614 l 101 687 q 108 692 128 692 l 128 692 l 147 689 l 144 615 l 204 654 q 212 651 222 633 l 222 633 l 229 615 l 163 581 l 227 549 q 227 539 218 523 l 218 523 l 206 508"},"43":{"x_min":30,"x_max":510,"ha":540,"o":"m 231 292 l 39 292 q 30 302 30 330 q 30 358 41 369 l 41 369 l 231 369 l 231 562 q 243 570 270 570 q 297 570 309 561 l 309 561 l 309 369 l 502 369 q 510 358 510 330 q 510 302 500 292 l 500 292 l 309 292 l 309 100 q 298 91 270 91 q 242 91 231 102 l 231 102 l 231 292"},"44":{"x_min":27,"x_max":146,"ha":181,"o":"m 146 43 l 146 43 q 146 -21 121 -56 q 96 -92 74 -97 l 74 -97 q 44 -97 32 -74 l 32 -74 q 77 -42 82 -1 l 82 -1 q 27 -1 27 51 l 27 51 q 27 79 44 99 q 60 118 89 118 q 117 118 132 96 q 146 73 146 43"},"45":{"x_min":30,"x_max":544,"ha":574,"o":"m 535 156 l 39 156 q 30 166 30 195 q 30 223 41 233 l 41 233 l 536 233 q 544 222 544 194 q 544 166 535 156 l 535 156"},"46":{"x_min":35,"x_max":152,"ha":187,"o":"m 135 96 q 152 79 152 55 q 152 31 134 13 q 115 -6 91 -6 q 67 -6 51 11 q 35 27 35 53 q 35 78 53 96 q 70 113 94 113 q 118 113 135 96"},"47":{"x_min":0,"x_max":560,"ha":560,"o":"m 0 -41 l 0 -41 l 470 703 q 485 706 500 706 l 500 706 q 530 706 560 696 l 560 696 l 87 -48 q 73 -51 59 -51 l 59 -51 q 30 -51 0 -41"},"48":{"x_min":30,"x_max":599,"ha":629,"o":"m 530 551 q 563 498 581 436 q 599 374 599 298 q 599 221 573 155 q 547 88 504 54 l 504 54 q 420 -13 315 -13 l 315 -13 q 172 -13 93 88 l 93 88 q 65 123 48 181 q 30 239 30 318 q 30 397 60 477 q 90 556 157 613 q 224 670 315 670 l 315 670 q 384 670 440 637 q 496 604 530 551 m 203 144 q 242 89 315 89 q 388 89 428 144 q 467 199 467 310 q 467 421 424 493 q 380 565 315 565 q 250 565 207 493 q 163 421 163 310 q 163 199 203 144"},"49":{"x_min":20,"x_max":305,"ha":335,"o":"m 247 603 l 247 603 l 243 217 q 243 112 248 107 l 248 107 q 265 108 282 108 q 298 108 300 106 l 300 106 q 305 85 305 45 q 305 5 300 5 l 300 5 l 275 5 q 181 5 107 -6 l 107 -6 l 80 -10 q 75 -6 75 40 q 75 85 81 91 l 81 91 l 122 98 q 121 112 121 150 l 121 150 l 125 432 q 125 521 118 528 l 118 528 q 117 529 109 529 q 101 529 80 526 q 58 522 41 518 q 23 514 22 514 q 20 514 20 552 q 20 590 30 600 q 40 610 131 644 q 221 677 241 677 l 241 677 q 244 677 244 676 l 244 676 q 247 673 247 603"},"50":{"x_min":30,"x_max":497,"ha":527,"o":"m 329 -8 l 329 -8 q 329 -8 148 -1 l 148 -1 q 91 -1 64 -3 q 37 -5 35 -5 l 35 -5 q 30 -1 30 48 q 30 96 38 107 l 38 107 q 117 181 196 269 l 196 269 q 350 440 350 503 q 350 566 256 566 l 256 566 q 180 566 152 512 l 152 512 q 132 475 124 431 l 124 431 q 122 429 109 429 q 95 429 71 434 q 46 439 42 443 q 38 447 38 482 q 38 516 42 572 q 46 627 50 631 q 54 634 84 642 l 84 642 q 168 665 269 665 q 369 665 430 624 q 490 582 490 517 l 490 517 q 490 446 396 328 l 396 328 q 322 235 235 141 l 235 141 l 207 110 q 204 103 264 103 l 264 103 q 428 103 494 124 l 494 124 q 497 124 497 122 l 497 122 q 497 96 488 56 q 478 15 467 4 q 455 -8 329 -8"},"51":{"x_min":30,"x_max":513,"ha":543,"o":"m 170 423 l 170 423 q 182 421 206 421 q 229 421 257 431 q 284 440 296 454 l 296 454 q 318 478 318 500 l 318 500 q 318 534 284 551 q 249 568 210 568 l 210 568 q 143 568 96 554 l 96 554 l 82 549 q 75 549 75 573 q 75 597 80 626 q 85 655 91 661 l 91 661 q 138 675 200 675 q 261 675 303 668 q 344 661 382 645 q 420 628 442 596 q 464 564 464 517 q 464 470 432 436 q 399 402 364 390 l 364 390 q 359 388 365 386 q 370 384 380 381 q 390 377 416 363 q 442 349 462 331 q 481 312 497 279 q 513 245 513 196 q 513 147 485 103 q 456 59 409 34 l 409 34 q 315 -16 194 -16 l 194 -16 q 107 -16 59 -1 l 59 -1 l 43 4 q 39 9 35 61 q 30 113 30 149 q 30 184 31 194 l 31 194 q 32 199 56 207 q 79 214 98 214 q 117 214 117 212 l 117 212 q 117 159 143 126 q 169 92 234 92 q 299 92 337 126 q 374 159 374 201 q 374 242 350 266 q 326 290 286 300 l 286 300 q 221 318 144 318 l 144 318 q 140 318 140 320 l 140 320 q 140 365 161 408 l 161 408 q 168 423 170 423"},"52":{"x_min":20,"x_max":552,"ha":572,"o":"m 480 160 l 480 160 q 480 44 491 -6 l 491 -6 q 491 -16 448 -27 q 405 -38 374 -38 l 374 -38 l 347 -35 q 343 -29 343 6 q 343 41 347 157 l 347 157 q 290 154 169 154 q 47 154 43 158 l 43 158 q 34 167 28 188 q 22 208 21 224 l 21 224 l 20 239 q 20 266 140 448 q 260 630 324 700 l 324 700 q 331 707 363 711 q 395 715 426 715 q 457 715 457 706 l 457 706 q 457 704 456 703 l 456 703 q 394 632 394 624 l 394 624 q 484 622 484 609 l 484 609 q 479 458 479 304 l 479 304 l 479 266 q 529 266 541 269 q 552 271 552 265 l 552 265 q 552 237 538 204 q 523 171 515 163 l 515 163 q 514 162 480 160 m 243 263 l 243 263 l 351 264 q 358 432 358 500 q 358 567 355 567 l 355 567 q 333 545 251 420 q 169 294 169 268 l 169 268 q 169 263 243 263"},"53":{"x_min":40,"x_max":488,"ha":518,"o":"m 194 103 l 194 103 l 207 102 q 250 102 293 124 l 293 124 q 318 136 334 164 q 349 191 349 226 q 349 260 334 282 q 319 304 297 317 q 275 329 244 336 l 244 336 q 191 349 128 349 l 128 349 l 51 345 l 49 387 q 49 495 61 575 q 72 654 74 656 q 76 658 105 658 q 133 658 229 663 q 325 668 376 668 q 426 668 431 663 l 431 663 q 441 649 441 606 q 441 563 436 558 l 436 558 q 404 561 366 561 q 327 561 286 560 l 286 560 q 197 556 191 550 q 185 544 185 502 q 185 459 187 458 l 187 458 q 288 458 374 412 l 374 412 q 407 395 432 372 q 456 349 472 312 q 488 275 488 229 l 488 229 q 488 115 389 51 q 290 -13 127 -13 l 127 -13 q 59 -13 47 -5 l 47 -5 q 40 2 40 97 q 40 192 47 199 q 53 205 90 216 q 126 227 147 227 l 147 227 q 147 119 194 103"},"54":{"x_min":30,"x_max":529,"ha":559,"o":"m 162 263 l 162 263 q 162 190 197 149 q 231 108 291 108 l 291 108 q 335 108 367 137 q 399 166 399 212 l 399 212 q 399 314 241 314 l 241 314 q 200 314 164 303 l 164 303 q 162 279 162 263 m 457 571 l 457 571 q 429 573 420 573 l 420 573 q 339 573 277 528 q 215 483 191 416 l 191 416 q 221 423 266 423 l 266 423 q 389 423 459 369 q 529 315 529 228 l 529 228 q 529 168 507 122 q 484 75 448 48 l 448 48 q 374 -5 285 -5 l 285 -5 q 224 -5 177 16 q 129 37 102 68 q 75 98 58 138 l 58 138 q 30 204 30 266 q 30 327 44 383 q 58 438 89 492 q 120 546 164 588 q 208 630 273 656 q 338 681 415 681 l 415 681 q 431 681 433 679 l 433 679 q 459 645 459 577 l 459 577 q 459 571 457 571"},"55":{"x_min":30,"x_max":491,"ha":496,"o":"m 256 -27 l 256 -27 q 256 -34 220 -37 l 220 -37 l 209 -38 q 137 -38 114 -22 l 114 -22 q 105 -17 105 -13 l 105 -13 q 105 58 128 142 q 151 226 181 292 q 211 358 248 422 l 248 422 q 296 506 331 555 l 331 555 q 331 565 256 565 q 180 565 154 539 l 154 539 q 129 516 120 466 l 120 466 l 117 450 q 112 445 76 457 q 39 469 32 482 l 32 482 q 29 487 31 570 q 32 653 38 659 q 44 665 119 665 q 194 665 236 665 q 277 664 312 664 l 312 664 q 409 662 444 671 l 444 671 q 455 674 473 639 q 491 604 491 585 l 491 585 q 474 573 437 519 q 399 465 357 388 q 315 310 284 208 q 253 106 253 19 l 253 19 l 253 10 q 253 -17 256 -27"},"56":{"x_min":30,"x_max":562,"ha":582,"o":"m 291 95 q 346 95 384 128 q 421 161 421 195 q 421 228 390 258 q 359 287 329 300 q 298 313 289 313 q 280 313 256 298 q 231 282 204 249 q 177 216 177 183 q 177 150 206 123 q 235 95 291 95 m 308 428 q 323 428 361 460 q 398 491 398 515 q 398 539 374 557 q 349 574 310 574 q 271 574 240 553 q 208 532 208 503 q 208 474 250 451 q 292 428 308 428 m 562 207 q 562 117 483 53 q 403 -12 290 -12 q 177 -12 104 40 q 30 92 30 170 l 30 170 q 30 233 83 294 l 83 294 q 110 325 160 356 l 160 356 l 169 361 l 169 365 q 64 417 64 493 l 64 493 q 64 539 90 577 q 116 614 156 635 l 156 635 q 236 678 316 678 l 316 678 q 436 678 500 608 l 500 608 q 533 572 533 528 q 533 484 496 442 q 458 399 415 377 l 415 377 q 411 374 414 373 q 416 371 433 363 q 450 354 464 346 q 477 338 497 323 q 516 307 529 292 l 529 292 q 562 252 562 207 l 562 207"},"57":{"x_min":30,"x_max":528,"ha":558,"o":"m 398 402 l 398 402 q 398 475 364 517 q 330 558 268 558 l 268 558 q 223 558 192 532 q 160 506 160 461 l 160 461 q 160 391 232 372 l 232 372 q 265 364 318 364 q 371 364 396 377 l 396 377 q 398 384 398 402 m 106 95 l 106 95 l 139 93 q 222 93 283 139 q 344 185 373 264 l 373 264 q 338 256 284 256 l 284 256 q 161 256 96 307 q 30 357 30 436 q 30 515 69 569 l 69 569 q 142 670 273 670 l 273 670 q 336 670 384 649 q 432 628 459 598 q 485 567 502 527 l 502 527 q 528 463 528 394 q 528 324 505 255 q 481 185 437 124 q 392 62 315 24 q 238 -15 143 -15 l 143 -15 q 128 -15 126 -13 l 126 -13 q 100 19 100 86 l 100 86 q 100 95 106 95"},"58":{"x_min":35,"x_max":152,"ha":187,"o":"m 135 410 q 152 393 152 369 q 152 345 134 327 q 115 308 91 308 q 67 308 51 325 q 35 341 35 366 q 35 391 53 409 q 70 427 94 427 q 118 427 135 410 m 135 96 q 152 79 152 55 q 152 31 134 13 q 115 -6 91 -6 q 67 -6 51 11 q 35 27 35 53 q 35 78 53 96 q 70 113 94 113 q 118 113 135 96"},"59":{"x_min":25,"x_max":146,"ha":181,"o":"m 125 410 q 142 393 142 369 q 142 345 124 327 q 106 308 82 308 q 58 308 42 325 q 25 341 25 366 q 25 391 43 409 q 61 427 85 427 q 108 427 125 410 m 146 43 l 146 43 q 146 73 132 96 q 117 118 89 118 q 60 118 44 99 q 27 79 27 51 l 27 51 q 27 -1 82 -1 l 82 -1 q 77 -42 32 -74 l 32 -74 q 44 -97 74 -97 l 74 -97 q 96 -92 121 -56 q 146 -21 146 43"},"60":{"x_min":31,"x_max":461,"ha":481,"o":"m 448 467 l 448 467 l 447 449 q 434 445 328 394 l 328 394 q 161 315 161 313 q 161 310 165 309 l 165 309 q 448 201 461 188 l 461 188 l 461 184 q 461 138 432 111 l 432 111 q 343 148 114 230 l 114 230 l 35 259 q 30 277 31 305 q 32 332 43 343 l 43 343 q 346 509 421 529 l 421 529 q 448 518 448 467"},"61":{"x_min":30,"x_max":495,"ha":525,"o":"m 485 200 l 39 200 q 30 211 30 239 q 30 267 41 277 l 41 277 l 487 277 q 495 266 495 239 q 495 211 485 200 l 485 200 m 485 380 l 39 380 q 30 391 30 419 q 30 447 41 457 l 41 457 l 487 457 q 495 446 495 419 q 495 391 485 380 l 485 380"},"62":{"x_min":30,"x_max":461,"ha":481,"o":"m 30 184 l 30 188 q 40 198 255 282 l 255 282 l 326 309 q 330 310 330 312 l 330 312 q 315 322 186 384 q 57 445 44 449 l 44 449 q 39 516 70 529 l 70 529 q 103 520 198 474 q 292 427 370 385 l 370 385 l 448 343 q 457 334 460 302 l 460 302 l 461 292 l 456 259 q 151 149 59 111 l 59 111 q 30 138 30 184 l 30 184"},"63":{"x_min":25,"x_max":366,"ha":396,"o":"m 113 655 l 113 655 q 250 655 308 609 q 366 562 366 494 l 366 494 q 366 408 292 354 l 292 354 q 264 333 224 316 l 224 316 l 208 309 q 201 306 195 268 q 188 229 188 212 l 188 212 q 183 207 160 201 q 136 194 121 194 q 105 194 97 196 l 97 196 q 86 214 86 274 q 86 334 91 351 l 91 351 q 249 389 249 479 l 249 479 q 249 557 105 557 l 105 557 q 54 557 31 547 l 31 547 q 25 557 25 589 q 25 621 34 643 l 34 643 q 61 655 113 655 m 85 10 q 65 29 65 57 q 65 85 85 105 q 104 124 132 124 q 160 124 180 105 q 199 85 199 57 q 199 29 180 10 q 160 -10 132 -10 q 104 -10 85 10"},"64":{"x_min":30,"x_max":962,"ha":992,"o":"m 517 -113 l 517 -113 q 518 -116 518 -132 q 518 -148 508 -181 q 497 -215 488 -223 l 488 -223 q 485 -228 456 -230 l 456 -230 q 365 -230 292 -204 q 218 -178 171 -135 q 123 -93 90 -36 l 90 -36 q 30 70 30 204 l 30 204 q 30 329 100 446 l 100 446 q 137 510 191 560 q 244 610 328 642 q 411 673 512 673 q 612 673 692 644 q 772 615 822 570 q 871 525 904 466 l 904 466 q 962 358 962 234 l 962 234 q 962 116 901 12 l 901 12 q 871 -40 819 -72 q 767 -105 702 -105 l 702 -105 q 647 -105 604 -68 l 604 -68 q 566 -34 562 35 l 562 35 q 562 37 561 37 q 560 37 558 35 l 558 35 q 505 -7 434 -7 q 363 -7 325 27 q 286 61 286 117 q 286 173 311 212 q 335 250 369 270 q 402 290 441 303 l 441 303 q 501 323 538 323 l 538 323 l 539 324 q 539 373 415 373 l 415 373 q 366 373 342 369 l 342 369 l 341 369 q 341 389 354 420 q 367 450 377 460 l 377 460 q 377 463 401 465 q 425 467 446 467 l 446 467 q 561 467 615 423 q 669 378 669 284 l 669 284 l 668 258 q 667 182 667 132 q 667 82 669 62 l 669 62 q 676 2 726 2 l 726 2 q 760 2 786 26 q 811 50 824 88 l 824 88 q 848 161 848 226 l 848 226 q 848 401 754 490 q 659 578 511 578 l 511 578 q 416 578 334 535 q 252 492 199 405 q 146 318 146 203 l 146 203 q 146 47 248 -45 l 248 -45 q 284 -77 340 -97 q 396 -117 448 -117 q 500 -117 517 -113 m 409 144 q 409 123 424 109 q 439 95 464 95 q 488 95 506 100 q 523 105 540 124 q 557 143 557 173 l 557 173 l 557 211 q 557 233 556 233 l 556 233 q 516 233 480 220 l 480 220 q 409 193 409 144 l 409 144"},"65":{"x_min":25,"x_max":601,"ha":616,"o":"m 385 224 l 385 224 q 371 225 299 225 q 227 225 215 221 l 215 221 q 162 47 155 -30 l 155 -30 q 155 -31 131 -31 q 106 -31 80 -28 l 80 -28 q 25 -20 25 -14 l 25 -14 q 25 26 96 219 l 96 219 q 83 230 66 265 q 49 299 49 322 l 49 322 q 49 323 132 326 l 132 326 q 214 564 225 577 l 225 577 q 229 580 261 587 q 293 593 302 593 l 302 593 l 300 606 q 298 620 296 637 q 293 653 293 658 l 293 658 q 293 661 310 670 l 310 670 q 359 694 411 694 l 411 694 q 421 635 438 544 q 454 452 502 264 q 550 76 594 2 l 594 2 l 601 -10 q 601 -15 582 -27 q 563 -39 532 -50 q 501 -61 475 -61 l 475 -61 q 466 -61 432 53 q 397 166 385 224 m 361 327 l 361 327 q 327 471 324 488 q 321 505 319 505 q 317 505 314 501 l 314 501 q 305 484 281 419 q 256 354 249 329 l 249 329 q 360 329 361 327"},"66":{"x_min":40,"x_max":549,"ha":579,"o":"m 223 68 l 223 68 q 290 68 350 107 q 410 146 410 199 l 410 199 q 410 237 380 262 l 380 262 q 328 304 235 304 l 235 304 q 212 304 211 303 q 209 302 209 210 q 209 118 218 69 l 218 69 q 220 68 223 68 m 301 426 q 327 436 346 458 q 364 479 364 503 q 364 526 350 540 q 336 554 315 561 q 294 568 275 571 q 255 574 237 574 q 219 574 218 573 q 216 571 214 491 q 211 410 211 405 l 211 405 q 212 404 222 404 q 231 404 253 410 q 275 415 301 426 m 84 140 l 84 140 l 89 522 q 89 562 87 564 l 87 564 q 76 575 58 613 q 40 650 40 661 l 40 661 l 41 664 q 47 669 105 673 q 162 677 219 677 q 275 677 322 670 q 369 663 414 648 q 458 633 485 604 q 512 574 512 538 q 512 501 497 472 q 481 442 458 422 l 458 422 q 423 392 390 376 l 390 376 q 388 374 388 373 l 388 373 q 389 372 403 368 q 416 364 429 359 q 441 353 459 344 q 477 335 492 323 q 507 310 520 294 l 520 294 q 549 260 549 202 q 549 143 513 92 q 477 41 417 12 l 417 12 q 297 -46 144 -46 l 144 -46 l 93 -43 q 90 -39 87 30 q 84 98 84 140"},"67":{"x_min":35,"x_max":585,"ha":600,"o":"m 331 -31 l 331 -31 q 185 -31 110 53 q 35 137 35 270 l 35 270 q 35 383 85 480 l 85 480 q 114 537 158 580 q 202 623 277 651 q 352 679 447 679 l 447 679 q 479 679 504 673 q 529 667 529 665 l 529 665 q 529 617 523 556 q 516 494 515 493 l 515 493 q 510 488 474 477 q 437 466 419 466 l 419 466 l 419 472 q 419 517 406 535 q 393 553 361 553 l 361 553 q 290 553 229 479 q 168 404 168 274 l 168 274 q 168 205 202 150 l 202 150 q 220 121 255 103 q 289 85 336 85 l 336 85 q 430 85 519 172 l 519 172 q 523 172 536 160 q 548 147 560 126 l 560 126 q 585 86 585 77 q 585 68 554 44 q 523 19 460 -6 q 397 -31 331 -31"},"68":{"x_min":41,"x_max":595,"ha":625,"o":"m 393 171 q 422 200 442 250 q 462 299 462 355 q 462 411 442 451 q 422 490 395 511 q 368 531 333 544 l 333 544 q 279 564 230 564 l 230 564 q 217 564 217 563 l 217 563 q 210 556 210 327 q 210 98 217 91 l 217 91 q 219 89 232 89 q 244 89 270 96 q 295 103 330 123 q 364 142 393 171 m 83 152 l 83 152 l 86 547 q 75 564 58 608 q 41 651 41 660 q 41 668 42 669 l 42 669 q 52 679 160 679 l 160 679 q 368 679 482 592 q 595 505 595 359 l 595 359 q 595 287 572 227 q 549 166 511 125 q 472 83 425 52 q 377 20 324 2 l 324 2 q 220 -32 135 -32 l 135 -32 q 95 -32 89 -26 q 83 -20 83 152"},"69":{"x_min":40,"x_max":500,"ha":530,"o":"m 93 391 l 93 391 l 94 499 q 94 542 92 546 l 92 546 q 81 557 64 599 q 46 641 46 653 l 46 653 q 57 664 397 664 l 397 664 q 481 664 481 660 l 481 660 q 481 639 472 614 q 462 589 452 574 q 441 559 437 561 q 432 562 396 562 q 359 562 294 558 q 229 553 223 547 q 217 541 217 437 l 217 437 l 218 395 q 258 396 336 396 q 414 396 414 393 l 414 393 q 414 357 390 311 l 390 311 q 381 295 379 296 l 379 296 q 353 296 290 292 q 227 287 217 281 l 217 281 q 216 280 216 197 q 216 114 221 109 l 221 109 q 237 93 393 93 l 393 93 q 456 93 478 97 q 500 100 500 99 l 500 99 q 500 75 484 42 q 468 9 450 -8 l 450 -8 q 440 -18 271 -18 q 101 -18 95 -10 l 95 -10 q 89 -5 89 87 q 89 178 91 280 l 91 280 q 73 296 57 330 q 40 364 40 388 l 40 388 q 40 389 93 391"},"70":{"x_min":40,"x_max":477,"ha":507,"o":"m 122 -33 l 122 -33 l 91 -30 q 89 -20 89 107 q 89 233 90 284 l 90 284 q 73 300 57 334 q 40 367 40 391 l 40 391 q 40 392 92 394 l 92 394 q 93 436 93 491 q 93 546 92 547 l 92 547 q 81 558 64 600 q 46 641 46 653 l 46 653 q 57 664 393 664 l 393 664 q 477 664 477 660 l 477 660 q 477 639 468 614 q 458 589 448 575 q 437 560 434 561 q 431 562 398 562 q 365 562 296 558 q 227 553 221 548 q 215 542 215 439 l 215 439 l 216 397 q 310 399 360 399 q 410 399 410 396 l 410 396 q 410 357 386 314 l 386 314 q 378 299 376 299 l 376 299 l 366 299 q 334 299 277 294 q 220 289 217 286 q 214 283 214 161 q 214 39 227 -5 l 227 -5 q 227 -18 189 -25 q 150 -33 122 -33"},"71":{"x_min":35,"x_max":611,"ha":631,"o":"m 351 282 l 351 282 l 290 279 q 286 279 286 292 q 286 305 295 336 q 304 367 318 381 q 332 395 554 395 l 554 395 q 611 395 611 390 l 611 390 q 611 367 599 328 q 586 288 577 275 l 577 275 q 576 6 571 -4 q 565 -14 534 -26 q 503 -39 482 -39 q 460 -39 460 -36 l 460 -36 q 460 18 455 29 l 455 29 l 453 31 l 450 29 q 391 -30 296 -30 l 296 -30 q 166 -30 101 54 q 35 138 35 271 l 35 271 q 35 383 76 474 l 76 474 q 102 531 143 573 q 183 615 255 643 q 326 671 420 671 l 420 671 q 441 671 478 666 q 515 661 518 658 q 520 655 520 636 q 520 617 515 584 q 510 551 504 545 l 504 545 q 473 561 399 561 l 399 561 q 293 561 230 490 q 167 419 167 282 l 167 282 q 167 194 203 141 q 239 88 304 88 q 369 88 410 120 q 450 152 450 174 l 450 174 l 450 206 q 450 267 444 273 l 444 273 q 437 282 351 282"},"72":{"x_min":40,"x_max":587,"ha":628,"o":"m 211 412 l 211 392 l 344 393 q 418 393 418 391 l 418 391 q 418 522 422 582 q 426 642 426 644 q 426 646 441 654 q 455 662 481 670 q 507 677 526 677 q 544 677 544 673 l 544 673 q 533 526 533 360 q 533 193 543 112 q 553 31 587 -3 l 587 -3 q 587 -5 578 -13 q 568 -21 533 -32 q 497 -43 466 -43 l 466 -43 l 454 -41 q 435 -22 428 38 q 420 97 419 288 l 419 288 q 402 289 311 289 q 219 289 210 286 l 210 286 q 209 258 209 163 q 209 67 217 3 l 217 3 q 217 -8 185 -15 q 153 -23 126 -23 q 98 -23 93 -17 q 87 -12 87 166 l 87 166 l 87 284 q 74 296 57 330 q 40 364 40 386 l 40 386 q 40 389 89 389 l 89 389 q 90 460 90 552 l 90 552 l 90 573 q 64 621 64 668 l 64 668 q 64 672 65 673 l 65 673 q 71 674 76 674 q 81 674 99 674 q 116 674 148 668 q 180 661 199 653 q 218 645 218 640 l 218 640 q 211 591 211 412 l 211 412"},"73":{"x_min":45,"x_max":262,"ha":307,"o":"m 258 89 l 258 89 q 262 89 262 40 q 262 -10 256 -10 l 256 -10 q 111 -10 48 -24 l 48 -24 q 45 -24 45 20 q 45 64 52 73 l 52 73 q 64 79 91 79 l 91 79 q 89 113 89 322 q 89 530 94 560 l 94 560 l 92 560 q 65 560 47 554 l 47 554 q 45 554 45 600 q 45 645 51 651 l 51 651 q 57 657 131 662 q 205 667 255 667 l 255 667 q 258 667 258 651 l 258 651 l 255 577 q 255 573 252 573 l 252 573 q 218 573 216 572 q 214 570 213 530 l 213 530 q 209 372 209 257 q 209 141 217 88 l 217 88 q 230 89 258 89"},"74":{"x_min":20,"x_max":476,"ha":506,"o":"m 450 573 l 450 573 l 452 382 q 452 181 442 140 l 442 140 q 422 59 364 18 q 306 -24 227 -24 l 227 -24 q 193 -24 166 -18 q 138 -12 128 -6 l 128 -6 l 118 1 q 83 -26 35 -26 l 35 -26 q 25 -26 24 -25 l 24 -25 l 20 26 q 20 159 31 218 l 31 218 l 35 240 q 41 248 72 258 q 103 267 127 267 l 127 267 q 127 157 153 120 q 179 82 232 82 l 232 82 q 327 82 327 259 l 327 259 l 328 416 q 328 538 317 549 l 317 549 q 297 569 234 569 l 234 569 l 230 569 q 226 571 226 589 q 226 607 231 626 q 236 645 240 649 q 243 652 271 658 l 271 658 q 355 674 462 674 l 462 674 q 476 674 476 672 l 476 672 q 476 648 463 611 q 450 574 450 573"},"75":{"x_min":40,"x_max":557,"ha":568,"o":"m 65 20 l 65 20 l 76 487 q 76 558 71 566 q 66 573 53 604 q 40 634 40 643 l 40 643 q 40 647 60 654 l 60 654 q 114 674 156 674 q 197 674 199 672 q 201 669 201 633 q 201 596 196 446 l 196 446 q 196 440 198 440 q 200 440 203 444 l 203 444 q 259 518 338 605 q 417 691 434 691 q 450 691 476 680 q 502 669 520 657 q 537 644 537 640 l 537 640 l 537 639 q 498 614 450 570 q 402 526 372 493 q 342 460 342 455 l 342 455 q 342 418 424 240 q 505 61 557 8 l 557 8 q 558 7 553 2 q 547 -4 535 -11 q 523 -19 508 -26 l 508 -26 q 473 -44 434 -44 l 434 -44 q 398 -8 354 91 q 310 189 282 269 q 253 349 251 349 l 251 349 q 246 349 220 308 q 193 266 193 258 l 193 258 l 193 193 q 193 21 199 -8 l 199 -8 q 200 -11 188 -17 l 188 -17 q 154 -34 102 -34 l 102 -34 l 68 -29 q 65 -26 65 20"},"76":{"x_min":40,"x_max":522,"ha":547,"o":"m 206 625 l 206 625 l 200 213 q 200 136 203 99 l 203 99 q 219 95 255 95 q 290 95 316 101 q 341 107 359 123 q 376 138 387 152 q 398 165 406 192 l 406 192 q 418 228 430 287 l 430 287 q 430 288 445 288 q 459 288 491 275 q 522 261 522 254 l 522 254 q 522 177 514 80 l 514 80 q 506 -28 495 -28 q 483 -28 450 -19 q 417 -11 400 -4 l 400 -4 q 310 -19 167 -20 l 167 -20 l 117 -21 l 77 -16 q 73 -12 73 72 l 73 72 l 77 455 q 77 572 72 580 q 66 587 53 618 q 40 648 40 657 l 40 657 q 40 661 62 668 l 62 668 q 117 688 159 688 q 201 688 204 685 q 206 682 206 625"},"77":{"x_min":40,"x_max":694,"ha":729,"o":"m 77 -41 l 77 -41 q 55 -41 41 -35 l 41 -35 q 41 133 70 444 l 70 444 l 79 547 q 65 564 53 599 q 40 634 40 648 l 40 648 l 41 651 q 44 655 91 658 q 138 661 195 661 q 251 661 256 656 q 261 651 304 531 q 347 410 368 344 l 368 344 q 370 339 373 339 q 376 339 383 361 q 390 382 441 511 q 492 639 509 656 l 509 656 q 518 665 606 665 q 694 665 694 660 l 694 660 q 694 643 681 601 q 667 559 658 542 l 658 542 q 693 225 693 -19 l 693 -19 q 693 -29 653 -37 q 612 -46 586 -46 q 560 -46 560 -42 l 560 -42 q 563 -1 563 91 q 563 182 558 308 l 558 308 q 553 465 546 465 l 546 465 l 540 459 q 520 422 489 334 q 457 246 436 176 l 436 176 l 415 107 q 410 96 386 96 q 361 96 346 99 q 330 102 329 105 l 329 105 q 326 116 267 281 q 208 445 199 456 l 199 456 q 196 462 194 462 q 192 462 191 455 l 191 455 q 173 364 173 188 q 173 11 178 -17 l 178 -17 q 153 -41 77 -41"},"78":{"x_min":40,"x_max":573,"ha":613,"o":"m 100 -30 l 100 -30 q 80 -30 64 -24 l 64 -24 l 64 6 q 64 159 74 450 l 74 450 l 78 547 q 65 564 53 601 q 40 637 40 646 q 40 654 42 656 q 44 658 93 662 q 141 665 193 665 q 244 665 250 660 l 250 660 q 427 264 431 256 q 434 248 436 248 l 436 248 l 440 255 l 440 283 q 440 368 435 495 q 429 622 423 653 l 423 653 q 437 666 475 676 q 512 685 543 685 q 573 685 573 680 l 573 680 q 573 660 566 633 q 559 606 559 605 l 559 605 q 552 560 552 465 q 552 369 553 327 q 553 285 554 247 q 554 208 555 171 q 556 133 556 102 l 556 102 q 558 36 558 10 l 558 10 l 559 -4 q 559 -7 546 -12 l 546 -12 q 507 -28 441 -28 l 441 -28 l 404 -24 q 364 89 287 261 q 210 433 201 447 q 192 460 190 460 l 190 460 l 187 453 q 183 425 183 333 q 183 240 188 131 q 192 22 198 -6 l 198 -6 q 171 -30 100 -30"},"79":{"x_min":30,"x_max":634,"ha":664,"o":"m 322 -30 l 322 -30 q 173 -30 102 56 q 30 142 30 272 l 30 272 q 30 335 45 390 q 60 445 73 468 q 86 491 94 496 q 102 500 157 500 l 157 500 l 176 500 q 176 550 196 587 q 215 624 246 642 l 246 642 q 304 675 356 675 l 356 675 q 634 675 634 325 l 634 325 q 634 216 597 131 l 597 131 q 576 83 542 49 q 508 14 452 -8 q 395 -30 322 -30 m 505 333 l 505 333 q 505 568 365 568 l 365 568 q 325 568 304 545 q 282 522 282 487 q 282 451 305 403 q 327 355 350 327 l 350 327 l 372 299 q 372 287 335 277 q 298 266 276 266 l 276 266 q 271 266 256 285 q 240 304 220 344 q 199 383 190 427 l 190 427 q 175 412 166 366 q 157 320 157 277 l 157 277 q 157 193 204 134 q 251 74 323 74 l 323 74 q 505 74 505 333"},"80":{"x_min":40,"x_max":555,"ha":575,"o":"m 199 339 l 199 339 q 423 359 423 482 l 423 482 q 423 522 382 545 q 340 567 276 567 l 276 567 l 204 561 q 199 525 199 339 m 209 -6 q 198 -17 166 -23 q 133 -30 110 -30 q 87 -30 73 -24 l 73 -24 l 79 553 q 65 569 53 606 q 40 643 40 652 q 40 660 43 663 q 45 665 107 669 q 168 672 231 672 q 293 672 342 665 q 391 658 443 640 q 494 621 525 583 q 555 544 555 484 q 555 424 519 374 q 482 324 430 298 l 430 298 q 322 243 236 232 l 236 232 l 199 228 q 203 24 209 -6 l 209 -6"},"81":{"x_min":30,"x_max":634,"ha":664,"o":"m 544 -52 l 544 -52 q 532 -71 501 -84 q 469 -97 446 -97 l 446 -97 l 442 -97 q 442 -73 428 -30 l 428 -30 l 423 -16 q 379 -28 322 -28 l 322 -28 q 173 -28 102 58 q 30 144 30 274 l 30 274 q 30 337 45 392 q 60 447 73 471 q 86 494 95 499 q 104 503 138 503 q 172 503 176 502 l 176 502 q 176 552 196 589 q 215 625 245 643 l 245 643 q 302 677 356 677 l 356 677 q 634 677 634 327 l 634 327 q 634 119 517 29 l 517 29 q 544 -26 544 -52 m 454 154 l 461 142 q 505 206 505 335 l 505 335 q 505 571 364 571 l 364 571 q 325 571 304 548 q 282 524 282 489 q 282 453 305 405 q 327 357 350 329 l 350 329 l 372 301 q 372 289 335 279 q 298 268 276 268 l 276 268 q 271 268 255 287 q 239 306 219 346 q 199 385 190 429 l 190 429 q 174 413 166 368 q 157 322 157 279 l 157 279 q 157 195 204 136 q 251 76 323 76 l 323 76 q 355 76 382 84 l 382 84 q 349 151 335 170 l 335 170 q 367 196 422 196 l 422 196 q 431 191 454 154 l 454 154"},"82":{"x_min":40,"x_max":567,"ha":587,"o":"m 198 339 l 198 339 q 316 350 372 395 q 427 439 427 483 q 427 526 384 547 q 341 567 275 567 l 275 567 q 240 567 204 561 l 204 561 q 198 518 198 339 m 209 -6 q 198 -17 165 -23 q 132 -30 110 -30 q 88 -30 72 -24 l 72 -24 l 78 553 q 65 569 53 606 q 40 643 40 652 q 40 660 42 663 q 44 665 106 669 q 167 672 230 672 q 293 672 342 665 q 391 658 444 641 q 497 623 528 585 q 559 547 559 488 q 559 428 517 377 q 475 326 403 291 l 403 291 q 403 275 466 148 q 529 20 566 -17 l 566 -17 q 567 -18 567 -20 q 567 -23 551 -30 l 551 -30 q 507 -51 456 -51 l 456 -51 l 431 -49 q 409 -27 355 97 q 300 221 294 249 l 294 249 q 282 242 199 228 l 199 228 q 201 27 209 -6 l 209 -6"},"83":{"x_min":30,"x_max":489,"ha":519,"o":"m 413 571 l 413 571 q 397 573 377 573 q 356 573 327 569 q 297 565 266 557 q 234 548 214 530 q 194 512 194 487 q 194 461 225 442 q 255 422 298 406 q 341 389 385 368 q 428 347 459 307 q 489 266 489 209 l 489 209 q 489 108 393 38 q 296 -33 149 -33 l 149 -33 q 75 -33 39 -25 l 39 -25 q 30 -16 30 83 q 30 181 34 201 l 34 201 q 37 210 69 223 q 101 236 131 236 l 131 236 q 131 118 156 93 l 156 93 q 166 83 194 83 l 194 83 q 258 83 306 119 q 353 155 353 204 l 353 204 q 353 237 322 262 q 291 287 247 306 q 202 324 158 345 q 114 365 83 401 q 52 437 52 486 l 52 486 q 52 559 140 620 q 227 680 393 680 l 393 680 q 432 680 437 675 l 437 675 q 438 672 438 661 q 438 649 431 616 q 424 583 413 571"},"84":{"x_min":10,"x_max":466,"ha":471,"o":"m 162 80 l 162 80 l 169 496 q 169 547 167 550 q 164 552 150 552 l 150 552 q 119 552 40 542 l 40 542 l 13 538 l 10 564 q 10 612 26 648 l 26 648 l 32 660 q 110 661 209 667 q 307 672 387 672 q 466 672 466 668 l 466 668 q 466 639 461 599 q 456 558 449 551 l 449 551 q 426 556 364 556 q 302 556 299 553 l 299 553 q 292 546 292 292 q 292 38 322 -17 l 322 -17 l 322 -18 q 322 -27 283 -35 q 244 -43 221 -43 l 221 -43 q 189 -43 169 -34 l 169 -34 q 162 -26 162 80"},"85":{"x_min":30,"x_max":551,"ha":591,"o":"m 186 624 l 186 624 l 178 349 q 178 89 288 89 l 288 89 q 321 89 344 103 q 367 116 386 152 l 386 152 q 425 222 425 423 q 425 623 414 690 l 414 690 q 425 695 442 695 l 442 695 q 517 695 542 669 l 542 669 q 551 624 551 384 l 551 384 q 551 139 470 48 l 470 48 q 430 3 384 -15 q 337 -33 276 -33 l 276 -33 q 157 -33 103 58 q 49 148 49 370 l 49 370 q 49 454 52 501 q 54 548 53 549 l 53 549 q 47 560 39 587 q 30 614 30 626 l 30 626 q 30 630 49 638 l 49 638 q 98 657 140 657 q 182 657 184 655 q 186 653 186 624"},"86":{"x_min":10,"x_max":589,"ha":599,"o":"m 235 -48 l 235 -48 q 225 -48 223 -46 l 223 -46 q 190 -16 100 255 q 10 526 10 627 l 10 627 q 10 629 24 635 l 24 635 q 66 654 101 654 q 135 654 135 651 l 135 651 q 139 602 195 392 q 250 182 290 101 l 290 101 q 299 83 308 92 l 308 92 q 311 95 312 99 l 312 99 q 339 150 390 307 q 440 463 440 564 l 440 564 q 440 576 418 590 q 395 604 377 606 l 377 606 q 376 608 376 617 q 376 626 381 646 q 386 665 390 668 l 390 668 q 482 693 574 693 l 574 693 q 589 691 589 689 l 589 689 q 589 603 543 432 q 496 260 447 126 q 398 -9 383 -24 l 383 -24 q 339 -48 235 -48"},"87":{"x_min":10,"x_max":774,"ha":784,"o":"m 774 686 l 774 686 q 774 587 736 416 q 698 244 658 117 q 618 -10 606 -21 q 594 -33 551 -42 q 507 -51 484 -51 q 461 -51 461 -48 l 461 -48 q 459 -40 442 54 l 442 54 q 392 317 385 334 q 378 350 376 350 l 376 350 l 371 344 q 346 282 315 151 q 283 19 283 0 l 283 0 q 283 -4 264 -11 l 264 -11 q 212 -30 162 -30 l 162 -30 q 151 -30 148 -27 l 148 -27 q 121 0 66 268 q 10 535 10 644 l 10 644 q 10 646 20 652 l 20 652 q 54 669 95 669 q 135 668 135 666 l 135 666 q 142 536 165 393 q 187 249 208 196 l 208 196 q 210 189 213 189 q 215 189 218 196 l 218 196 q 300 513 318 532 l 318 532 q 354 546 419 546 l 419 546 q 455 544 458 541 q 461 538 478 458 q 495 377 515 280 q 535 182 540 163 q 544 143 552 164 l 552 164 q 569 211 595 335 q 621 459 621 569 l 621 569 q 621 580 603 591 q 584 601 565 603 l 565 603 q 564 606 564 616 q 564 625 569 644 q 573 662 576 665 l 576 665 q 667 689 758 689 l 758 689 q 774 687 774 686"},"88":{"x_min":5,"x_max":621,"ha":626,"o":"m 310 233 l 310 233 q 156 -14 149 -23 q 142 -33 137 -33 l 137 -33 q 97 -33 64 -22 q 31 -11 18 -1 q 5 9 5 13 q 5 16 13 23 l 13 23 q 89 100 247 346 l 247 346 q 133 551 111 570 l 111 570 q 103 577 83 585 q 63 593 47 593 l 47 593 q 46 595 46 605 q 46 614 53 634 q 59 653 62 656 q 65 659 81 662 l 81 662 q 124 670 169 670 q 213 670 216 668 q 218 666 230 642 l 230 642 q 286 533 322 464 l 322 464 q 456 675 469 675 l 469 675 q 497 675 527 663 q 557 651 574 638 q 591 624 591 618 l 591 618 q 521 559 384 350 l 384 350 q 543 67 621 10 l 621 10 q 621 -3 574 -28 q 526 -54 490 -54 l 490 -54 l 486 -54 q 449 -18 310 233"},"89":{"x_min":5,"x_max":618,"ha":624,"o":"m 243 -30 l 243 -30 l 246 245 l 246 258 q 218 297 147 426 q 75 554 69 562 l 69 562 q 46 585 6 585 l 6 585 q 5 587 5 596 q 5 605 12 625 q 18 644 21 647 q 23 649 39 652 l 39 652 q 82 660 126 660 q 170 660 173 658 q 175 656 200 603 l 200 603 q 278 437 315 381 l 315 381 l 317 381 q 323 403 403 540 q 482 677 495 677 l 495 677 q 525 677 555 669 q 585 661 602 652 q 619 642 618 636 l 618 636 q 565 577 478 447 q 390 316 374 258 l 374 258 q 372 238 372 129 q 372 20 380 -14 l 380 -14 q 380 -26 348 -32 q 316 -38 286 -38 q 255 -38 243 -30"},"90":{"x_min":20,"x_max":554,"ha":574,"o":"m 554 199 l 554 199 q 554 154 534 73 q 514 -9 505 -17 l 505 -17 q 502 -20 491 -20 l 491 -20 q 469 -20 422 -10 l 422 -10 l 407 -6 q 399 -5 366 -5 l 366 -5 l 53 -14 q 43 -14 32 14 q 20 42 20 59 q 20 76 21 80 l 21 80 q 37 114 121 227 q 204 340 278 440 q 352 539 352 550 l 352 550 q 352 556 278 556 q 203 556 173 541 l 173 541 q 159 536 119 466 l 119 466 l 106 444 q 92 444 67 459 q 41 474 41 482 l 41 482 q 41 506 52 554 q 62 602 75 640 q 87 678 91 678 l 91 678 q 119 678 148 666 q 177 653 179 653 l 179 653 q 269 666 381 666 q 492 666 510 660 l 510 660 q 518 653 529 629 q 539 605 539 575 l 539 575 q 539 572 531 564 l 531 564 q 469 494 340 311 q 210 128 210 106 l 210 106 q 210 99 294 99 q 377 99 403 115 l 403 115 q 419 129 447 172 q 475 215 484 241 l 484 241 q 484 243 493 243 q 501 243 528 227 q 554 211 554 199"},"91":{"x_min":30,"x_max":203,"ha":213,"o":"m 185 -64 l 203 -79 q 186 -100 152 -108 l 152 -108 q 137 -108 88 -78 q 38 -49 32 -37 l 32 -37 q 30 -33 30 240 l 30 240 l 30 442 q 30 680 32 683 l 32 683 q 38 696 88 726 q 137 755 152 755 l 152 755 q 184 748 203 725 l 203 725 q 132 668 126 643 l 126 643 q 124 414 124 322 l 124 322 l 126 4 q 129 -8 148 -28 q 167 -49 185 -64 l 185 -64"},"92":{"x_min":0,"x_max":560,"ha":560,"o":"m 90 703 l 90 703 l 560 -41 q 533 -51 510 -51 q 486 -51 473 -48 l 473 -48 l 0 696 q 26 706 51 706 q 75 706 90 703"},"93":{"x_min":10,"x_max":183,"ha":213,"o":"m 28 710 l 10 725 q 26 745 61 755 l 61 755 q 76 755 126 726 q 175 696 181 683 l 181 683 q 183 677 183 509 l 183 509 l 183 111 q 183 -33 181 -37 l 181 -37 q 175 -49 126 -78 q 76 -108 61 -108 l 61 -108 q 29 -102 10 -79 l 10 -79 q 81 -22 87 4 l 87 4 q 89 232 89 325 l 89 325 l 87 643 q 84 654 65 675 q 46 695 28 710 l 28 710"},"94":{"x_min":15,"x_max":276,"ha":291,"o":"m 147 218 l 147 218 q 138 213 99 175 q 59 137 52 128 l 52 128 q 43 128 30 139 q 17 150 15 159 l 15 159 q 15 172 54 222 q 93 272 112 283 l 112 283 q 127 283 147 270 l 147 270 q 166 283 181 283 l 181 283 q 200 272 238 221 q 276 170 276 157 l 276 157 q 274 148 261 137 q 248 126 239 126 l 239 126 q 233 134 194 174 q 155 213 147 218"},"95":{"x_min":30,"x_max":509,"ha":539,"o":"m 500 -27 l 39 -27 q 30 -17 30 12 q 30 40 41 50 l 41 50 l 501 50 q 509 39 509 11 q 509 -17 500 -27 l 500 -27"},"96":{"x_min":167,"x_max":302,"ha":484,"o":"m 266 488 l 266 488 q 256 500 222 531 q 187 562 167 574 l 167 574 q 167 586 190 603 q 212 619 228 619 l 228 619 q 247 608 275 570 q 302 532 302 519 l 302 519 q 300 510 288 499 q 275 488 266 488"},"97":{"x_min":25,"x_max":444,"ha":459,"o":"m 407 274 l 407 223 q 407 98 410 77 l 410 77 q 418 22 444 -2 l 444 -2 q 444 -13 405 -35 q 365 -57 333 -57 l 333 -57 q 324 -57 314 -30 q 304 -4 303 9 q 301 22 300 22 l 300 22 l 297 20 q 244 -22 173 -22 q 102 -22 64 13 q 25 47 25 103 q 25 159 50 198 q 74 236 107 256 q 140 276 180 288 l 180 288 q 241 308 276 308 l 276 308 l 278 309 q 278 358 154 358 l 154 358 q 105 358 81 354 l 81 354 l 80 354 q 80 374 93 404 q 105 434 114 443 q 122 452 185 452 l 185 452 q 299 452 353 409 q 407 365 407 274 l 407 274 m 296 159 l 296 159 l 296 197 q 296 219 295 219 l 295 219 q 228 219 179 184 l 179 184 q 148 162 148 129 l 148 129 q 148 108 163 94 q 178 80 209 80 q 239 80 268 98 q 296 116 296 159"},"98":{"x_min":50,"x_max":436,"ha":466,"o":"m 57 144 l 57 144 l 55 513 q 55 638 60 643 l 60 643 q 72 655 100 666 q 127 677 152 677 q 177 677 177 673 l 177 673 q 175 663 172 560 q 168 456 169 431 l 169 431 l 185 431 q 296 431 366 380 l 366 380 q 394 359 415 318 q 436 276 436 221 l 436 221 q 436 126 359 63 q 282 -1 170 -19 l 170 -19 q 170 -42 169 -44 l 169 -44 q 156 -57 124 -64 q 91 -71 71 -71 q 50 -71 50 -68 l 50 -68 q 57 -40 57 144 m 172 91 l 172 91 q 198 91 226 100 q 254 108 272 121 q 289 134 304 162 q 318 190 318 235 q 318 280 287 304 q 255 328 214 328 l 214 328 l 168 325 l 168 253 q 168 118 172 91"},"99":{"x_min":30,"x_max":363,"ha":386,"o":"m 254 -29 l 254 -29 q 140 -29 85 29 q 30 87 30 175 l 30 175 q 30 298 113 371 q 195 444 314 444 l 314 444 q 337 444 341 443 l 341 443 q 347 438 347 395 q 347 352 335 343 l 335 343 l 328 343 q 251 343 203 307 l 203 307 q 183 292 168 260 q 153 228 153 183 q 153 138 180 109 q 207 79 267 79 l 267 79 q 314 79 350 97 l 350 97 q 354 99 355 99 l 355 99 q 363 91 363 45 q 363 -1 352 -10 l 352 -10 q 319 -29 254 -29"},"100":{"x_min":30,"x_max":449,"ha":484,"o":"m 300 429 l 300 429 l 298 577 q 298 639 301 642 l 301 642 q 313 654 341 666 q 368 677 393 677 q 418 677 418 673 l 418 673 q 410 507 410 320 q 410 133 416 97 l 416 97 q 423 43 449 17 l 449 17 q 449 7 408 -14 q 366 -36 337 -36 l 337 -36 q 334 -36 328 -28 l 328 -28 q 309 -3 305 40 l 305 40 q 305 43 303 43 l 303 43 l 300 41 q 258 -19 175 -19 l 175 -19 q 108 -19 69 34 q 30 87 30 153 l 30 153 q 30 266 100 346 q 170 425 300 429 m 302 324 l 302 324 q 302 326 291 326 l 291 326 l 287 326 q 223 326 187 285 q 150 244 150 181 l 150 181 q 150 144 168 121 q 185 97 221 97 q 256 97 278 128 q 299 159 299 177 l 299 177 q 299 288 302 324"},"101":{"x_min":30,"x_max":398,"ha":423,"o":"m 281 318 l 281 318 q 281 347 250 347 l 250 347 q 209 347 178 305 q 147 263 147 204 l 147 204 q 147 190 151 190 l 151 190 q 187 191 234 232 q 281 272 281 318 m 368 0 l 368 0 q 334 -23 235 -23 q 136 -23 83 36 q 30 95 30 194 q 30 292 94 365 q 157 437 272 437 l 272 437 q 319 437 359 412 q 398 387 398 325 q 398 262 344 201 q 289 140 195 108 l 195 108 q 195 96 220 89 q 244 81 268 81 l 268 81 q 344 81 388 108 l 388 108 q 389 109 391 109 q 393 109 393 90 l 393 90 q 393 32 368 0"},"102":{"x_min":20,"x_max":289,"ha":300,"o":"m 181 436 l 181 386 l 186 -14 q 186 -53 184 -63 l 184 -63 q 146 -91 83 -91 l 83 -91 l 55 -86 q 70 25 70 324 l 70 324 q 70 399 69 434 l 69 434 l 25 432 q 20 437 20 476 q 20 515 29 524 l 29 524 q 47 525 68 526 l 68 526 l 66 647 q 64 663 140 700 q 216 737 264 737 l 264 737 q 270 737 280 715 q 289 692 289 680 q 289 667 288 664 l 288 664 q 285 664 262 654 q 239 643 214 627 q 189 610 188 598 l 188 598 q 184 572 182 527 l 182 527 l 186 527 q 267 527 267 524 l 267 524 q 267 477 248 446 l 248 446 q 241 434 236 434 l 236 434 q 204 436 181 436 l 181 436"},"103":{"x_min":27,"x_max":418,"ha":458,"o":"m 416 375 l 416 248 l 418 11 q 418 -67 397 -127 q 376 -188 346 -221 q 316 -255 277 -276 l 277 -276 q 214 -311 150 -311 l 150 -311 q 147 -311 138 -296 q 129 -281 121 -255 q 113 -229 113 -207 l 113 -207 l 132 -207 q 152 -207 171 -203 q 189 -200 216 -184 q 243 -168 262 -142 q 281 -116 295 -65 q 309 -14 309 54 l 309 54 q 309 58 308 58 l 308 58 l 305 55 q 263 -10 174 -10 l 174 -10 q 107 -10 67 43 q 27 96 27 162 l 27 162 q 27 282 104 360 q 181 438 325 438 l 325 438 q 360 438 360 433 l 360 433 q 363 416 363 396 l 363 396 l 362 381 l 373 381 q 405 381 416 375 l 416 375 m 307 332 l 307 332 l 286 335 q 222 335 185 294 q 147 252 147 190 l 147 190 q 147 159 166 136 q 184 113 220 113 q 255 113 279 141 q 303 169 303 186 l 303 186 q 303 300 307 332"},"104":{"x_min":40,"x_max":417,"ha":457,"o":"m 48 194 l 48 194 l 45 541 q 45 638 50 643 l 50 643 q 62 655 89 666 q 116 677 141 677 q 166 677 166 673 l 166 673 q 165 664 162 542 q 159 420 159 382 l 159 382 l 159 373 q 159 368 162 368 l 162 368 l 182 388 q 193 398 227 416 q 260 433 290 433 q 319 433 339 423 q 358 413 371 399 q 384 385 393 359 q 402 332 407 310 q 411 287 414 248 l 414 248 q 417 195 417 114 l 417 114 l 413 -19 q 410 -27 379 -33 q 348 -39 328 -39 l 328 -39 l 295 -34 q 305 56 305 139 q 305 222 293 265 q 281 308 244 308 l 244 308 q 220 308 199 289 q 178 270 170 251 l 170 251 l 161 232 q 163 163 163 84 q 163 5 158 1 l 158 1 q 128 -26 48 -26 l 48 -26 q 40 -26 40 -23 l 40 -23 q 48 21 48 194"},"105":{"x_min":50,"x_max":200,"ha":220,"o":"m 122 597 q 149 597 166 579 q 183 561 183 532 q 183 503 161 483 q 138 462 111 462 q 83 462 67 480 q 50 497 50 526 q 50 555 72 576 q 94 597 122 597 m 173 399 l 172 348 l 170 186 q 170 108 175 72 q 179 35 200 3 l 200 3 q 200 -7 159 -29 q 118 -51 89 -51 l 89 -51 q 80 -51 71 -21 q 62 9 60 36 q 57 63 57 218 q 57 373 64 387 l 64 387 q 87 405 145 405 l 145 405 q 168 405 173 399 l 173 399"},"106":{"x_min":-65,"x_max":241,"ha":291,"o":"m 238 147 l 238 147 l 240 6 q 240 -72 219 -132 q 198 -192 168 -225 q 138 -258 99 -278 l 99 -278 q 37 -311 -28 -311 l -28 -311 q -31 -311 -40 -296 q -49 -281 -57 -255 q -65 -229 -65 -207 l -65 -207 l -55 -207 q -18 -207 30 -186 l 30 -186 q 123 -139 123 33 l 123 33 q 125 99 125 186 q 125 272 118 280 l 118 280 q 104 293 58 304 l 58 304 l 43 307 q 41 311 41 318 l 41 318 q 41 364 55 378 l 55 378 q 115 408 221 408 l 221 408 q 239 408 241 406 l 241 406 q 238 271 238 147 m 174 597 q 201 597 218 579 q 235 561 235 532 q 235 503 213 483 q 190 462 163 462 q 135 462 119 480 q 102 498 102 527 q 102 555 124 576 q 146 597 174 597"},"107":{"x_min":50,"x_max":431,"ha":431,"o":"m 58 194 l 58 194 l 55 541 q 55 638 60 643 l 60 643 q 72 655 99 666 q 126 677 151 677 q 176 677 176 673 l 176 673 q 175 668 172 533 q 168 398 168 359 q 168 319 169 314 q 170 308 173 308 l 173 308 l 175 309 q 207 343 270 394 q 333 445 351 445 l 351 445 q 410 408 410 385 l 410 385 q 380 366 339 333 q 298 300 294 291 l 294 291 q 294 283 312 234 q 329 184 363 117 q 397 50 431 16 l 431 16 q 431 4 387 -14 q 343 -32 311 -32 l 311 -32 q 299 -32 265 62 q 230 156 217 208 l 217 208 l 215 211 q 211 211 190 182 q 169 153 169 143 l 169 143 l 172 41 q 172 5 168 1 l 168 1 q 155 -12 123 -19 q 91 -26 71 -26 q 50 -26 50 -23 l 50 -23 q 58 21 58 194"},"108":{"x_min":50,"x_max":193,"ha":223,"o":"m 50 142 l 50 142 l 54 504 q 54 583 52 611 q 50 639 50 641 l 50 641 q 50 651 84 664 q 117 677 143 677 q 169 677 169 673 l 169 673 q 164 636 164 413 l 164 413 l 162 168 q 162 99 164 83 l 164 83 q 169 39 193 3 l 193 3 q 193 -7 152 -29 q 111 -51 82 -51 l 82 -51 q 74 -51 64 -21 q 54 9 52 31 q 50 53 50 142"},"109":{"x_min":50,"x_max":629,"ha":669,"o":"m 57 124 l 57 124 l 54 359 q 54 423 59 428 l 59 428 q 71 439 96 449 q 121 458 144 458 q 167 458 167 454 l 167 454 q 163 410 163 387 q 163 364 165 364 q 167 364 171 369 q 175 373 186 383 q 196 392 225 409 q 253 425 277 425 l 277 425 q 342 425 375 367 l 375 367 q 432 447 501 447 l 501 447 q 563 447 590 394 l 590 394 q 618 335 623 276 l 623 276 q 629 190 629 98 l 629 98 l 625 -19 q 625 -26 592 -32 q 559 -39 539 -39 l 539 -39 l 507 -34 q 518 65 518 126 q 518 187 517 214 q 515 240 509 267 q 503 293 491 305 q 478 316 459 316 q 440 316 425 306 q 410 295 404 285 q 397 275 397 272 l 397 272 q 400 240 400 124 l 400 124 l 396 45 q 396 37 364 31 q 332 25 312 25 l 312 25 l 280 30 q 289 111 289 182 q 289 252 282 281 q 274 309 242 309 q 210 309 188 277 q 166 245 166 228 l 166 228 l 166 207 l 167 101 q 167 3 163 -2 l 163 -2 q 138 -26 58 -26 l 58 -26 q 50 -26 50 -23 l 50 -23 q 57 20 57 124"},"110":{"x_min":50,"x_max":425,"ha":465,"o":"m 171 239 l 171 225 l 172 188 l 172 112 q 172 5 168 1 l 168 1 q 155 -12 123 -19 q 91 -26 71 -26 q 50 -26 50 -23 l 50 -23 q 57 22 57 125 l 57 125 l 54 350 q 54 412 59 417 l 59 417 q 70 428 97 437 q 124 445 148 445 q 171 445 171 440 l 171 440 q 168 416 168 392 q 168 368 171 368 l 171 368 l 174 370 q 179 377 189 388 q 199 398 232 416 q 264 433 294 433 q 323 433 344 423 q 364 412 377 397 q 390 382 400 354 q 409 326 414 302 q 419 278 422 238 l 422 238 q 425 183 425 98 l 425 98 l 422 -19 q 422 -26 389 -32 q 356 -39 336 -39 l 336 -39 l 303 -34 q 313 56 313 141 q 313 225 302 268 q 291 310 258 310 q 225 310 205 292 q 184 274 178 256 l 178 256 l 171 239"},"111":{"x_min":30,"x_max":454,"ha":484,"o":"m 454 208 q 454 113 397 44 q 339 -26 241 -26 q 142 -26 86 35 q 30 96 30 194 q 30 291 100 367 q 169 442 287 442 l 287 442 q 335 440 339 436 q 343 432 343 417 q 343 402 340 384 l 340 384 q 355 384 379 367 q 402 349 417 331 q 432 313 443 281 q 454 248 454 208 l 454 208 m 308 278 l 308 278 q 285 293 263 293 l 263 293 l 255 293 q 253 297 253 310 q 253 323 256 335 l 256 335 q 215 335 180 298 q 144 261 144 195 l 144 195 q 144 117 194 87 l 194 87 q 213 75 247 75 q 280 75 310 106 q 339 137 339 198 q 339 259 308 278"},"112":{"x_min":45,"x_max":428,"ha":458,"o":"m 163 485 l 163 485 l 162 438 q 428 438 428 232 l 428 232 q 428 176 406 131 q 383 85 350 59 q 317 32 278 14 l 278 14 q 211 -17 158 -17 l 158 -17 l 158 -32 q 158 -182 166 -232 l 166 -232 q 153 -245 121 -252 q 89 -260 69 -260 q 49 -260 49 -257 l 49 -257 q 45 -225 45 -125 l 45 -125 l 50 340 q 50 422 47 454 l 47 454 q 59 466 88 477 q 116 488 137 488 q 158 488 163 485 m 160 291 l 158 144 l 159 94 q 220 94 266 129 q 312 164 312 230 l 312 230 q 312 338 161 338 l 161 338 l 160 325 q 160 312 160 291 l 160 291"},"113":{"x_min":30,"x_max":447,"ha":482,"o":"m 408 96 l 408 96 l 426 96 q 439 96 443 97 q 447 97 447 96 l 447 96 q 447 81 438 52 q 428 23 407 -6 l 407 -6 q 404 -12 404 -61 q 404 -111 410 -152 q 416 -193 439 -221 l 439 -221 q 428 -237 391 -252 q 353 -267 325 -267 l 325 -267 q 304 -237 299 -182 l 299 -182 q 296 -156 296 -15 l 296 -15 q 30 -15 30 191 l 30 191 q 30 248 52 294 q 73 340 104 367 q 135 393 174 410 l 174 410 q 241 441 299 441 l 299 441 q 300 444 300 471 l 300 471 q 309 484 335 492 q 361 500 385 500 q 409 500 412 497 l 412 497 q 413 491 412 436 l 412 436 q 407 271 407 193 q 407 114 408 96 m 297 290 l 297 290 l 296 341 q 241 341 194 303 q 146 265 146 204 l 146 204 q 146 159 172 132 q 197 105 227 98 q 257 90 294 90 l 294 90 q 297 189 297 290"},"114":{"x_min":45,"x_max":326,"ha":326,"o":"m 52 135 l 52 135 l 50 362 q 50 421 54 425 l 54 425 q 65 436 92 445 q 119 453 143 453 q 166 453 166 448 l 166 448 q 163 421 163 387 q 163 352 165 352 q 167 352 169 355 q 171 357 176 363 q 180 368 195 382 q 209 396 226 406 l 226 406 q 269 434 318 434 l 318 434 q 326 421 326 394 l 326 394 q 326 337 312 313 l 312 313 l 308 305 l 295 307 q 223 307 182 248 l 182 248 q 166 224 166 212 l 166 212 l 166 124 q 166 4 163 1 l 163 1 q 135 -26 53 -26 l 53 -26 q 45 -26 45 -23 l 45 -23 q 52 16 52 135"},"115":{"x_min":30,"x_max":331,"ha":356,"o":"m 331 115 l 331 115 q 331 61 281 19 q 230 -24 172 -42 q 113 -61 69 -61 l 69 -61 q 64 -61 55 -49 l 55 -49 q 30 -16 30 28 l 30 28 l 30 35 q 108 35 149 62 q 190 89 190 118 l 190 118 q 190 137 165 158 q 140 179 110 195 q 80 211 55 238 q 30 264 30 293 l 30 293 q 30 354 106 405 q 182 456 268 456 l 268 456 q 278 456 294 429 q 310 401 311 372 l 311 372 q 291 372 251 360 l 251 360 q 172 335 172 298 l 172 298 q 172 272 250 227 l 250 227 q 280 210 305 180 q 330 150 331 115"},"116":{"x_min":0,"x_max":247,"ha":232,"o":"m 177 655 l 177 655 q 175 632 172 529 l 172 529 q 247 529 247 526 l 247 526 q 247 492 237 466 q 227 439 218 439 l 218 439 l 171 439 q 169 291 169 199 q 169 106 172 75 l 172 75 q 178 23 213 -10 l 213 -10 q 213 -21 175 -42 q 136 -63 102 -63 l 102 -63 q 99 -63 91 -53 q 82 -43 73 -20 q 63 3 61 25 q 58 47 58 182 q 58 317 61 437 l 61 437 l 5 436 q 0 441 0 480 q 0 518 9 526 l 9 526 q 31 527 62 528 l 62 528 q 62 586 59 603 q 56 620 56 623 l 56 623 q 56 633 91 646 q 125 659 151 659 q 177 659 177 655"},"117":{"x_min":40,"x_max":437,"ha":457,"o":"m 296 38 l 296 38 l 295 59 l 294 61 q 270 24 234 2 q 197 -20 162 -20 l 162 -20 q 57 -20 42 143 l 42 143 q 40 169 40 277 q 40 385 49 405 l 49 405 q 75 426 133 426 l 133 426 q 156 426 161 421 l 161 421 q 161 420 160 394 l 160 394 q 155 318 155 277 q 155 236 156 217 q 157 197 158 192 q 158 186 161 172 q 163 158 168 148 l 168 148 q 183 119 215 119 q 246 119 271 151 q 295 182 294 195 l 294 195 l 294 229 q 294 412 300 426 l 300 426 q 305 435 332 445 q 358 455 384 455 q 410 455 414 451 l 414 451 l 412 404 q 406 261 406 183 q 406 105 410 84 l 410 84 q 417 34 437 4 l 437 4 q 437 -6 396 -28 q 355 -50 326 -50 l 326 -50 q 318 -50 308 -20 q 298 10 296 38"},"118":{"x_min":10,"x_max":431,"ha":441,"o":"m 204 -21 l 183 -22 q 155 -22 137 -16 l 137 -16 q 137 5 74 196 q 10 386 10 426 l 10 426 q 10 428 21 435 q 31 441 57 448 q 83 455 116 455 l 116 455 q 177 207 208 138 l 208 138 q 209 133 212 138 l 212 138 q 230 170 267 308 q 304 445 308 487 l 308 487 q 309 493 330 498 q 351 502 385 502 q 419 502 431 492 l 431 492 q 431 463 360 234 q 289 4 281 -4 l 281 -4 q 267 -18 204 -21 l 204 -21"},"119":{"x_min":17,"x_max":639,"ha":656,"o":"m 323 388 l 323 388 q 390 388 392 375 l 392 375 q 425 188 445 147 l 445 147 l 449 147 q 471 194 498 311 q 525 428 529 477 l 529 477 q 589 477 627 456 l 627 456 q 639 450 639 448 l 639 448 q 639 404 609 293 q 578 182 548 92 q 517 1 513 -3 q 509 -7 478 -11 q 447 -16 421 -16 q 395 -16 387 -12 l 387 -12 q 378 -3 354 85 q 330 173 321 234 l 321 234 l 318 234 q 303 173 278 90 q 252 7 246 1 q 240 -6 206 -12 q 172 -19 152 -19 q 132 -19 129 -16 l 129 -16 q 121 -9 69 182 q 17 373 17 421 l 17 421 q 17 423 28 430 q 38 436 65 443 q 91 449 124 449 l 124 449 q 161 231 192 162 l 192 162 q 194 157 197 162 l 197 162 q 214 195 232 264 q 250 333 254 375 l 254 375 q 255 380 278 384 q 301 388 323 388"},"120":{"x_min":10,"x_max":440,"ha":445,"o":"m 440 56 l 440 56 q 440 37 405 0 q 370 -38 352 -38 l 352 -38 q 323 -26 208 126 l 208 126 q 127 -9 108 -54 l 108 -54 q 83 -54 51 -29 q 18 -5 10 13 l 10 13 q 10 32 138 221 l 138 221 q 41 356 41 371 l 41 371 q 47 392 74 418 q 101 444 123 450 l 123 450 q 131 427 207 319 l 207 319 q 304 454 343 483 l 343 483 q 354 483 390 461 q 426 439 426 428 l 426 428 q 358 359 274 230 l 274 230 q 382 90 440 56"},"121":{"x_min":40,"x_max":417,"ha":457,"o":"m 409 279 l 409 279 l 410 13 q 410 -65 390 -126 q 369 -187 340 -220 q 310 -253 272 -274 l 272 -274 q 210 -309 146 -309 l 146 -309 q 143 -309 134 -294 q 125 -279 117 -253 q 109 -228 109 -206 l 109 -206 q 147 -206 185 -191 q 223 -177 238 -160 q 253 -144 268 -119 l 268 -119 q 299 -70 299 40 l 299 40 l 298 69 q 298 75 296 75 q 294 75 292 72 q 290 69 287 65 q 284 60 273 49 q 261 37 248 28 l 248 28 q 213 4 178 4 q 142 4 122 13 q 101 22 88 36 q 74 50 65 76 q 56 101 51 123 q 46 145 44 183 l 44 183 q 40 236 40 293 l 40 293 q 40 372 48 422 l 48 422 l 51 436 q 51 443 82 450 q 112 457 132 457 l 132 457 l 164 452 q 153 353 153 285 q 153 217 167 172 q 181 127 214 127 q 247 127 267 147 q 286 166 291 185 l 291 185 l 296 204 q 294 267 294 340 q 294 412 299 417 l 299 417 q 312 430 345 437 q 377 444 397 444 q 417 444 417 441 l 417 441 q 409 394 409 279"},"122":{"x_min":30,"x_max":408,"ha":438,"o":"m 392 -5 l 392 -5 q 354 -2 290 -2 l 290 -2 q 172 -2 88 -16 l 88 -16 l 60 -20 q 52 -20 41 8 q 30 36 30 57 l 30 57 q 40 93 118 195 q 196 297 234 333 l 234 333 q 243 342 191 348 q 139 354 101 354 q 62 354 53 353 l 53 353 q 53 400 63 420 q 72 440 75 443 l 75 443 q 84 452 164 452 q 243 452 310 445 q 377 438 383 432 l 383 432 q 402 404 402 351 l 402 351 q 350 312 282 221 q 214 130 214 110 l 214 110 q 253 110 328 103 q 402 96 408 89 l 408 89 l 408 78 q 408 11 392 -5"},"123":{"x_min":5,"x_max":237,"ha":247,"o":"m 65 492 l 65 492 l 64 637 q 64 680 66 683 l 66 683 q 72 696 122 726 q 171 755 186 755 l 186 755 q 218 748 237 725 l 237 725 q 165 668 160 643 l 160 643 q 157 543 157 472 q 157 400 160 382 l 160 382 q 100 335 100 323 l 100 323 q 100 313 145 277 l 145 277 l 160 265 q 157 246 157 180 l 157 180 l 160 4 q 164 -18 219 -64 l 219 -64 l 237 -79 q 220 -100 186 -108 l 186 -108 q 171 -108 122 -78 q 72 -49 66 -37 l 66 -37 q 64 -33 64 19 l 64 19 l 65 153 q 65 234 61 262 l 61 262 q 5 313 5 323 l 5 323 q 5 331 47 372 l 47 372 l 61 385 q 65 412 65 492"},"124":{"x_min":51,"x_max":128,"ha":179,"o":"m 51 -42 l 51 -42 l 51 694 q 64 707 89 707 l 89 707 q 110 707 117 704 q 124 701 128 700 l 128 700 l 128 -41 q 119 -50 104 -50 l 104 -50 l 86 -50 q 73 -50 67 -48 q 61 -46 59 -45 q 57 -45 56 -44 l 56 -44 q 53 -44 51 -42"},"125":{"x_min":10,"x_max":242,"ha":247,"o":"m 182 163 l 182 163 l 183 14 q 183 -29 181 -37 l 181 -37 q 175 -49 126 -78 q 76 -108 61 -108 l 61 -108 q 29 -102 10 -79 l 10 -79 q 81 -22 87 4 l 87 4 q 89 103 89 178 q 89 252 87 265 l 87 265 q 146 312 146 323 l 146 323 q 146 333 102 370 l 102 370 l 87 382 q 89 394 89 466 l 89 466 l 87 643 q 84 654 65 675 q 46 695 28 710 l 28 710 l 10 725 q 26 745 61 755 l 61 755 q 76 755 126 726 q 175 696 179 687 q 183 677 183 633 l 183 633 l 182 484 q 182 414 185 385 l 185 385 q 242 333 242 323 l 242 323 q 242 319 228 304 q 214 288 200 275 l 200 275 l 185 262 q 182 233 182 163"},"126":{"x_min":30,"x_max":276,"ha":306,"o":"m 227 181 q 205 181 162 188 q 118 195 93 195 q 68 195 36 179 l 36 179 q 30 187 30 217 q 30 247 36 253 l 36 253 q 61 272 88 272 q 114 272 155 265 q 196 258 222 258 q 248 258 269 275 l 269 275 q 276 275 276 250 l 276 250 q 276 214 268 196 l 268 196 q 248 181 227 181"}}}
